<?xml version="1.0" encoding="utf-8"?>
<!-- Generator: Adobe Illustrator 16.0.0, SVG Export Plug-In . SVG Version: 6.00 Build 0)  -->
<!DOCTYPE svg PUBLIC "-//W3C//DTD SVG 1.1//EN" "http://www.w3.org/Graphics/SVG/1.1/DTD/svg11.dtd">
<svg version="1.1" id="Layer_1" xmlns="http://www.w3.org/2000/svg" xmlns:xlink="http://www.w3.org/1999/xlink" x="0px" y="0px"
	 width="100px" height="100px" viewBox="0 0 100 100" enable-background="new 0 0 100 100" xml:space="preserve">
<g>
	
		<line fill="none" stroke="#000000" stroke-width="4" stroke-linecap="round" stroke-miterlimit="10" x1="-243.667" y1="136" x2="-207" y2="136"/>
	
		<line fill="none" stroke="#000000" stroke-width="4" stroke-linecap="round" stroke-miterlimit="10" x1="-243.667" y1="146.666" x2="-221.167" y2="146.666"/>
	
		<line fill="none" stroke="#000000" stroke-width="4" stroke-linecap="round" stroke-miterlimit="10" x1="-243.667" y1="158.666" x2="-228.667" y2="158.666"/>
	
		<line fill="none" stroke="#000000" stroke-width="4" stroke-linecap="round" stroke-miterlimit="10" x1="-243.667" y1="169.334" x2="-230.833" y2="169.334"/>
	<path fill="none" d="M-217.966,150.834H-200v-23.5c0-0.552-0.448-1-1-1h-47.999c-0.552,0-1,0.448-1,1v47.998c0,0.553,0.448,1,1,1
		H-225v-18.465C-225,153.982-221.851,150.834-217.966,150.834z"/>
	<path d="M-248.999,178.832c-1.93,0-3.5-1.57-3.5-3.5v-47.998c0-1.93,1.57-3.5,3.5-3.5H-201c1.93,0,3.5,1.57,3.5,3.5v23.5h2.5v-23.5
		c0-3.314-2.687-6-6-6h-47.999c-3.313,0-6,2.686-6,6v47.998c0,3.313,2.687,6,6,6H-225v-2.5H-248.999z"/>
	<path d="M-248.999,176.332c-0.552,0-1-0.447-1-1v-47.998c0-0.552,0.448-1,1-1H-201c0.552,0,1,0.448,1,1v23.5h2.5v-23.5
		c0-1.93-1.57-3.5-3.5-3.5h-47.999c-1.93,0-3.5,1.57-3.5,3.5v47.998c0,1.93,1.57,3.5,3.5,3.5H-225v-2.5H-248.999z"/>
	<path fill="none" d="M-201,181.332h-19v32.801c0,1.121,0.912,2.033,2.033,2.033h56.267c1.121,0,2.033-0.912,2.033-2.033v-56.266
		c0-1.121-0.912-2.033-2.033-2.033H-195v19.498C-195,178.645-197.686,181.332-201,181.332z"/>
	<path fill="none" d="M-200,175.332v-19.498h-17.967c-1.121,0-2.033,0.912-2.033,2.033v18.465h19
		C-200.448,176.332-200,175.885-200,175.332z"/>
	<path d="M-161.7,150.834H-195v2.5h33.3c2.5,0,4.533,2.033,4.533,4.533v56.266c0,2.5-2.033,4.533-4.533,4.533h-56.267
		c-2.5,0-4.533-2.033-4.533-4.533v-32.801h-2.5v32.801c0,3.885,3.148,7.033,7.033,7.033h56.267c3.885,0,7.033-3.148,7.033-7.033
		v-56.266C-154.667,153.982-157.815,150.834-161.7,150.834z"/>
	<path d="M-217.966,153.334H-200v-2.5h-17.967c-3.885,0-7.033,3.148-7.033,7.033v18.465h2.5v-18.465
		C-222.5,155.367-220.466,153.334-217.966,153.334z"/>
	<rect x="-225" y="178.832" width="2.5" height="2.5"/>
	<rect x="-197.5" y="150.834" width="2.5" height="2.5"/>
	<rect x="-200" y="150.834" width="2.5" height="2.5"/>
	<rect x="-225" y="176.332" width="2.5" height="2.5"/>
	<path d="M-161.7,155.834c1.121,0,2.033,0.912,2.033,2.033v56.266c0,1.121-0.912,2.033-2.033,2.033h-56.267
		c-1.121,0-2.033-0.912-2.033-2.033v-32.801h-2.5v32.801c0,2.5,2.033,4.533,4.533,4.533h56.267c2.5,0,4.533-2.033,4.533-4.533
		v-56.266c0-2.5-2.033-4.533-4.533-4.533H-195v2.5H-161.7z"/>
	<path d="M-217.966,155.834H-200v-2.5h-17.967c-2.5,0-4.533,2.033-4.533,4.533v18.465h2.5v-18.465
		C-220,156.746-219.087,155.834-217.966,155.834z"/>
	<rect x="-197.5" y="153.334" width="2.5" height="2.5"/>
	<rect x="-222.5" y="178.832" width="2.5" height="2.5"/>
	<rect x="-222.5" y="176.332" width="2.5" height="2.5"/>
	<rect x="-200" y="153.334" width="2.5" height="2.5"/>
	
		<line fill="none" stroke="#000000" stroke-width="4" stroke-linecap="round" stroke-miterlimit="10" x1="-208.999" y1="167.5" x2="-172.332" y2="167.5"/>
	
		<line fill="none" stroke="#000000" stroke-width="4" stroke-linecap="round" stroke-miterlimit="10" x1="-209.166" y1="179" x2="-174.5" y2="179"/>
	
		<line fill="none" stroke="#000000" stroke-width="4" stroke-linecap="round" stroke-miterlimit="10" x1="-208.998" y1="190" x2="-183.832" y2="190"/>
	
		<line fill="none" stroke="#000000" stroke-width="4" stroke-linecap="round" stroke-miterlimit="10" x1="-209.167" y1="200.666" x2="-172.5" y2="200.666"/>
</g>
</svg>
