<?xml version="1.0" encoding="utf-8"?>
<!-- Generator: Adobe Illustrator 16.0.0, SVG Export Plug-In . SVG Version: 6.00 Build 0)  -->
<!DOCTYPE svg PUBLIC "-//W3C//DTD SVG 1.1//EN" "http://www.w3.org/Graphics/SVG/1.1/DTD/svg11.dtd">
<svg version="1.1" id="Layer_1" xmlns="http://www.w3.org/2000/svg" xmlns:xlink="http://www.w3.org/1999/xlink" x="0px" y="0px"
	 width="100px" height="100px" viewBox="0 0 100 100" enable-background="new 0 0 100 100" xml:space="preserve">
<g>
	<g>
		<path stroke="#000000" stroke-miterlimit="10" d="M-126.523,21.789l-1.383-1.215c-0.745-0.656-18.31-16.271-23.093-36.557
			c-2.312-9.803-0.055-19.951,6.191-27.842c5.022-6.344,11.834-10.131,18.222-10.131c6.73,0,14.114,4.266,19.269,11.129
			c5.932,7.9,7.798,17.721,5.12,26.941c-5.671,19.529-22.296,35.717-23.001,36.395L-126.523,21.789z M-126.586-49.955
			c-5.099,0-10.879,3.301-15.085,8.613c-5.482,6.928-7.465,15.836-5.436,24.441c3.741,15.861,16.27,29.096,20.462,33.174
			c4.037-4.246,16.141-17.895,20.605-33.273c2.324-8.002,0.692-16.539-4.477-23.424C-114.863-46.213-121.171-49.955-126.586-49.955z
			"/>
	</g>
	<g>
		<circle stroke="#000000" stroke-miterlimit="10" cx="-126.438" cy="-28.045" r="8.366"/>
	</g>
	<g>
		<path stroke="#000000" stroke-miterlimit="10" d="M-126.438,26.744c-27.677,0-50.111,2.967-50.111,6.627
			c0,3.658,22.435,6.625,50.111,6.625s50.111-2.967,50.111-6.625C-76.327,29.711-98.762,26.744-126.438,26.744z M-126.438,33.105
			c-9.378,0-16.979-0.648-16.979-1.449s7.602-1.451,16.979-1.451s16.979,0.65,16.979,1.451S-117.061,33.105-126.438,33.105z"/>
	</g>
</g>
</svg>
