<?xml version="1.0" encoding="utf-8"?>
<!-- Generator: Adobe Illustrator 16.0.0, SVG Export Plug-In . SVG Version: 6.00 Build 0)  -->
<!DOCTYPE svg PUBLIC "-//W3C//DTD SVG 1.1//EN" "http://www.w3.org/Graphics/SVG/1.1/DTD/svg11.dtd">
<svg version="1.1" id="Layer_1" xmlns="http://www.w3.org/2000/svg" xmlns:xlink="http://www.w3.org/1999/xlink" x="0px" y="0px"
	 width="100px" height="99.678px" viewBox="0 0 100 99.678" enable-background="new 0 0 100 99.678" xml:space="preserve">
<g>
	<path fill="#FFFFFF" d="M49.838,4.984c24.734,0,44.856,20.122,44.856,44.854c0,24.733-20.122,44.856-44.856,44.856
		c-24.731,0-44.854-20.123-44.854-44.856C4.984,25.107,25.106,4.984,49.838,4.984 M49.838,0C22.313,0,0,22.313,0,49.838
		c0,27.527,22.313,49.839,49.838,49.839c27.527,0,49.84-22.312,49.84-49.839C99.678,22.313,77.365,0,49.838,0L49.838,0z"/>
	<path fill="#FFFFFF" d="M30.776,49.838c0,3.854-3.124,6.978-6.979,6.978c-3.852,0-6.976-3.124-6.976-6.978
		c0-3.852,3.125-6.976,6.976-6.976C27.651,42.862,30.776,45.986,30.776,49.838z"/>
	<path fill="#FFFFFF" d="M68.902,49.838c0,3.854,3.123,6.978,6.979,6.978c3.851,0,6.975-3.124,6.975-6.978
		c0-3.852-3.124-6.976-6.975-6.976C72.025,42.862,68.902,45.986,68.902,49.838z"/>
	<path fill="#FFFFFF" d="M42.862,49.838c0,3.854,3.124,6.978,6.976,6.978c3.854,0,6.978-3.124,6.978-6.978
		c0-3.852-3.124-6.976-6.978-6.976C45.986,42.862,42.862,45.986,42.862,49.838z"/>
</g>
</svg>
