<?xml version="1.0" encoding="utf-8"?>
<!-- Generator: Adobe Illustrator 16.0.0, SVG Export Plug-In . SVG Version: 6.00 Build 0)  -->
<!DOCTYPE svg PUBLIC "-//W3C//DTD SVG 1.1//EN" "http://www.w3.org/Graphics/SVG/1.1/DTD/svg11.dtd">
<svg version="1.1" id="Layer_1" xmlns="http://www.w3.org/2000/svg" xmlns:xlink="http://www.w3.org/1999/xlink" x="0px" y="0px"
	 width="100px" height="200px" viewBox="0 0 100 200" enable-background="new 0 0 100 200" xml:space="preserve">
<g>
	<path fill="#FFFFFF" d="M35.254-33.167c81.061,0,147.006,65.945,147.006,146.997c0,81.059-65.945,147.004-147.006,147.004
		c-81.05,0-146.996-65.945-146.996-147.004C-111.742,32.779-45.796-33.167,35.254-33.167 M35.254-49.5
		c-90.205,0-163.329,73.123-163.329,163.33c0,90.213,73.124,163.336,163.329,163.336c90.215,0,163.338-73.123,163.338-163.336
		C198.592,23.624,125.469-49.5,35.254-49.5L35.254-49.5z"/>
	<path fill="#FFFFFF" d="M-27.215,113.83c0,12.631-10.238,22.869-22.87,22.869c-12.622,0-22.861-10.238-22.861-22.869
		c0-12.623,10.239-22.861,22.861-22.861C-37.454,90.969-27.215,101.207-27.215,113.83z"/>
	<path fill="#FFFFFF" d="M97.732,113.83c0,12.631,10.238,22.869,22.869,22.869c12.623,0,22.861-10.238,22.861-22.869
		c0-12.623-10.238-22.861-22.861-22.861C107.971,90.969,97.732,101.207,97.732,113.83z"/>
	<path fill="#FFFFFF" d="M12.394,113.83c0,12.631,10.238,22.869,22.86,22.869c12.631,0,22.869-10.238,22.869-22.869
		c0-12.623-10.238-22.861-22.869-22.861C22.632,90.969,12.394,101.207,12.394,113.83z"/>
</g>
</svg>
