<?xml version="1.0" encoding="utf-8"?>
<!-- Generator: Adobe Illustrator 16.0.0, SVG Export Plug-In . SVG Version: 6.00 Build 0)  -->
<!DOCTYPE svg PUBLIC "-//W3C//DTD SVG 1.1//EN" "http://www.w3.org/Graphics/SVG/1.1/DTD/svg11.dtd">
<svg version="1.1" id="Layer_1" xmlns="http://www.w3.org/2000/svg" xmlns:xlink="http://www.w3.org/1999/xlink" x="0px" y="0px"
	 width="100px" height="100px" viewBox="0 0 100 100" enable-background="new 0 0 100 100" xml:space="preserve">
<g>
	<g>
		<path d="M-121.667,5c0.513,0,0.846,0.164,1,0.273v89.453c-0.154,0.109-0.487,0.273-1,0.273h-48c-0.513,0-0.846-0.164-1-0.273
			V5.273c0.154-0.109,0.487-0.273,1-0.273H-121.667 M-121.667,0h-48c-3.314,0-6,2.238-6,5v90c0,2.762,2.686,5,6,5h48
			c3.314,0,6-2.238,6-5V5C-115.667,2.238-118.352,0-121.667,0L-121.667,0z"/>
	</g>
	<g>
		<g>
			<path d="M-162.736,92.041c-0.275,0-0.499-0.223-0.5-0.498l-0.019-3.959c-0.001-0.275,0.222-0.502,0.498-0.502
				c0,0,0.001,0,0.002,0c0.275,0,0.499,0.223,0.5,0.498l0.019,3.959c0.001,0.275-0.222,0.5-0.498,0.502
				C-162.734,92.041-162.735,92.041-162.736,92.041z"/>
		</g>
		<g>
			<path d="M-157.922,92.018c-0.275,0-0.499-0.223-0.5-0.498l-0.019-3.959c-0.001-0.275,0.222-0.5,0.498-0.502c0,0,0.001,0,0.002,0
				c0.275,0,0.499,0.223,0.5,0.498l0.019,3.959c0.001,0.275-0.222,0.5-0.498,0.502C-157.92,92.018-157.921,92.018-157.922,92.018z"
				/>
		</g>
		<g>
			<path d="M-160.329,92.029c-0.275,0-0.499-0.223-0.5-0.498l-0.019-3.959c-0.001-0.275,0.222-0.502,0.498-0.502
				c0,0,0.001,0,0.002,0c0.275,0,0.499,0.223,0.5,0.498l0.019,3.959c0.001,0.275-0.222,0.5-0.498,0.502
				C-160.327,92.029-160.328,92.029-160.329,92.029z"/>
		</g>
	</g>
	<g>
		<path d="M-130.414,92.375c-0.097,0-0.194-0.027-0.279-0.086l-3.426-2.313c-0.138-0.092-0.221-0.248-0.221-0.414
			s0.083-0.32,0.221-0.414l3.426-2.313c0.227-0.154,0.538-0.094,0.693,0.135s0.095,0.539-0.135,0.693l-2.812,1.898l2.812,1.898
			c0.229,0.154,0.29,0.465,0.135,0.693C-130.096,92.299-130.253,92.375-130.414,92.375z"/>
	</g>
	<g>
		<path d="M-143.79,92.178h-4.886c-0.651,0-1.182-0.531-1.182-1.182v-2.92c0-0.652,0.53-1.182,1.182-1.182h4.886
			c0.651,0,1.182,0.529,1.182,1.182v2.92C-142.608,91.646-143.138,92.178-143.79,92.178z M-148.675,87.895
			c-0.101,0-0.182,0.08-0.182,0.182v2.92c0,0.1,0.081,0.182,0.182,0.182h4.886c0.101,0,0.182-0.082,0.182-0.182v-2.92
			c0-0.102-0.081-0.182-0.182-0.182H-148.675z"/>
	</g>
	<g>
		<path d="M-124.338,84.75h-42.666c-1.379,0-2.5-1.125-2.5-2.51V8.177c0-1.384,1.121-2.51,2.5-2.51h42.666
			c1.379,0,2.5,1.126,2.5,2.51V82.24C-121.838,83.625-122.959,84.75-124.338,84.75z M-166.504,81.75h41.666V8.667h-41.666V81.75z"/>
	</g>
</g>
</svg>
